<svg xmlns="http://www.w3.org/2000/svg" viewBox="0 0 800 520" role="img" aria-labelledby="title desc">
  <title id="title">SchoolSphere Illustration</title>
  <desc id="desc">Stylized school building with trees and skyline</desc>
  <defs>
    <linearGradient id="sky" x1="0" y1="0" x2="0" y2="1">
      <stop offset="0%" stop-color="#dff0ff" />
      <stop offset="100%" stop-color="#b6d8ff" />
    </linearGradient>
    <linearGradient id="roof" x1="0" y1="0" x2="1" y2="0">
      <stop offset="0%" stop-color="#1f2d3d" />
      <stop offset="100%" stop-color="#25344a" />
    </linearGradient>
  </defs>
  <rect width="800" height="520" fill="url(#sky)" />
  <g fill="#8bb5e8" opacity="0.55">
    <path d="M20 350h150v120H20z" />
    <path d="M200 320h160v150H200z" />
    <path d="M380 300h140v170H380z" />
    <path d="M540 330h140v140H540z" />
    <path d="M680 310h120v160H680z" />
  </g>
  <rect y="430" width="800" height="90" fill="#5fa36e" />
  <rect y="420" width="800" height="12" fill="#0f172a" />
  <g transform="translate(190 250)">
    <rect x="0" y="80" width="420" height="170" rx="6" fill="#f05b48" stroke="#0f172a" stroke-width="6" />
    <rect x="180" y="0" width="60" height="40" rx="4" fill="#f05b48" stroke="#0f172a" stroke-width="6" />
    <rect x="90" y="40" width="240" height="40" fill="url(#roof)" />
    <rect x="180" y="-20" width="60" height="20" fill="#0f172a" />
    <rect x="204" y="-32" width="12" height="12" fill="#fbbf24" stroke="#0f172a" stroke-width="4" />
    <rect x="196" y="100" width="80" height="150" fill="#0f172a" />
    <rect x="210" y="170" width="50" height="80" fill="#f6f8fb" />
    <rect x="225" y="180" width="20" height="10" fill="#0f172a" />
    <rect x="20" y="110" width="70" height="60" fill="#f6f8fb" stroke="#0f172a" stroke-width="6" />
    <rect x="110" y="110" width="70" height="60" fill="#f6f8fb" stroke="#0f172a" stroke-width="6" />
    <rect x="300" y="110" width="70" height="60" fill="#f6f8fb" stroke="#0f172a" stroke-width="6" />
    <rect x="390" y="110" width="70" height="60" fill="#f6f8fb" stroke="#0f172a" stroke-width="6" />
    <rect x="20" y="190" width="70" height="60" fill="#f6f8fb" stroke="#0f172a" stroke-width="6" />
    <rect x="110" y="190" width="70" height="60" fill="#f6f8fb" stroke="#0f172a" stroke-width="6" />
    <rect x="300" y="190" width="70" height="60" fill="#f6f8fb" stroke="#0f172a" stroke-width="6" />
    <rect x="390" y="190" width="70" height="60" fill="#f6f8fb" stroke="#0f172a" stroke-width="6" />
  </g>
  <g fill="#0f172a" opacity="0.08">
    <circle cx="620" cy="160" r="70" />
    <circle cx="160" cy="160" r="90" />
  </g>
  <g fill="#4ba360">
    <circle cx="120" cy="410" r="60" />
    <rect x="110" y="380" width="20" height="80" fill="#1f2d3d" />
    <circle cx="680" cy="420" r="70" />
    <rect x="670" y="380" width="20" height="90" fill="#1f2d3d" />
  </g>
  <text x="400" y="140" text-anchor="middle" font-family="Georgia, serif" font-size="46" fill="#1f2d3d">SchoolSphere</text>
  <text x="400" y="185" text-anchor="middle" font-family="Georgia, serif" font-size="24" fill="#1f2d3d">School Management System</text>
</svg>
